<?xml version="1.0" encoding="UTF-8" standalone="no"?>
<!DOCTYPE svg PUBLIC "-//W3C//DTD SVG 1.1//EN" "http://www.w3.org/Graphics/SVG/1.1/DTD/svg11.dtd">
<svg width="100%" height="100%" viewBox="0 0 549 474" version="1.1" xmlns="http://www.w3.org/2000/svg" xmlns:xlink="http://www.w3.org/1999/xlink" xml:space="preserve" xmlns:serif="http://www.serif.com/" style="fill-rule:evenodd;clip-rule:evenodd;stroke-linejoin:round;stroke-miterlimit:2;">
    <g transform="matrix(1,0,0,1,-0.000585599,-35.5674)">
        <g transform="matrix(1,0,0,1,-197.998,-128.16)">
            <g transform="matrix(1,0,0,1,-32.9561,44.5154)">
                <path d="M749,167.42C749,167.42 711,165.13 715.44,191.79C715.44,191.79 714.55,196.5 718.82,198.64C718.82,198.64 718.89,196.64 722.72,197.33C724.084,197.56 725.47,197.627 726.85,197.53C728.719,197.405 730.497,196.671 731.91,195.44C733.323,194.209 742.6,191.03 746.76,173.55C746.76,173.55 749.84,169.73 749.76,168.75L743.34,171.5C743.34,171.5 745.53,176.13 743.8,179.98C743.8,179.98 743.6,171.67 742.36,171.86C742.11,171.86 739.03,173.47 739.03,173.47C739.03,173.47 742.8,181.53 739.95,187.4C739.95,187.4 741.03,177.46 737.85,174.05L733.33,176.69C733.33,176.69 737.74,185.02 734.75,191.82C734.75,191.82 735.52,181.39 732.38,177.33L728.28,180.52C728.28,180.52 732.43,188.74 729.9,194.38C729.9,194.38 729.57,182.24 727.39,181.32C727.39,181.32 723.81,184.48 723.27,185.78C723.27,185.78 726.1,191.78 724.34,194.89C724.34,194.89 723.26,186.8 722.34,186.76C722.34,186.76 718.77,192.12 718.4,195.76C718.573,192.367 719.631,189.077 721.47,186.22C719.413,186.609 717.514,187.593 716.01,189.05C714.506,190.507 716.56,185.26 722.35,184.93C722.35,184.93 725.35,180.86 726.09,180.61C726.09,180.61 720.33,180.13 716.84,181.68C716.84,181.68 719.91,178.11 727.15,179.68L731.15,176.38C731.15,176.38 723.57,175.38 720.35,176.49C720.35,176.49 724.05,173.33 732.24,175.63L736.64,173C736.64,173 730.18,171.6 726.33,172.11C726.33,172.11 730.39,169.92 737.93,172.29L741.08,170.88C741.08,170.88 736.34,169.95 734.96,169.8C733.58,169.65 733.5,169.27 733.5,169.27C736.498,168.771 739.577,169.117 742.39,170.27C745.203,171.423 749.14,167.84 749,167.42Z" style="fill:rgb(202,202,202);fill-rule:nonzero;"/>
            </g>
        </g>
        <g transform="matrix(1,0,0,1,-197.998,-128.16)">
            <g transform="matrix(1,0,0,1,-333.13,-39.2103)">
                <path d="M864.46,300.76C864.46,300.76 826.46,298.47 830.9,325.13C830.9,325.13 830.01,329.84 834.28,331.98C834.28,331.98 834.35,329.98 838.19,330.67C839.554,330.9 840.94,330.967 842.32,330.87C844.168,330.736 845.923,330.006 847.32,328.79C848.717,327.574 858.02,324.37 862.18,306.89C862.18,306.89 865.25,303.08 865.13,302.1L858.71,304.84C858.71,304.84 860.9,309.47 859.18,313.32C859.18,313.32 858.97,305.01 857.74,305.2C857.49,305.2 854.4,306.81 854.4,306.81C854.4,306.81 858.18,314.88 855.33,320.74C855.33,320.74 856.41,310.8 853.22,307.39L848.75,310C848.75,310 853.16,318.33 850.17,325.13C850.17,325.13 850.94,314.7 847.8,310.64L843.71,313.84C843.71,313.84 847.85,322.05 845.33,327.69C845.33,327.69 845,315.55 842.82,314.63C842.82,314.63 839.24,317.79 838.69,319.09C838.69,319.09 841.53,325.09 839.77,328.2C839.77,328.2 838.69,320.11 837.77,320.07C837.77,320.07 834.2,325.43 833.83,329.07C834.009,325.676 835.07,322.387 836.91,319.53C834.85,319.92 832.948,320.904 831.44,322.36C829.932,323.816 832,318.57 837.79,318.24C837.79,318.24 840.74,314.17 841.53,313.92C841.53,313.92 835.77,313.44 832.28,314.99C832.28,314.99 835.35,311.42 842.58,313.04L846.58,309.74C846.58,309.74 838.99,308.74 835.78,309.85C835.78,309.85 839.48,306.69 847.67,308.99L852.07,306.36C852.07,306.36 845.6,304.97 841.75,305.47C841.75,305.47 845.82,303.28 853.36,305.65L856.51,304.24C856.51,304.24 851.77,303.31 850.38,303.16C848.99,303.01 848.92,302.63 848.92,302.63C851.922,302.131 855.004,302.477 857.82,303.63C860.636,304.783 864.58,301.18 864.46,300.76Z" style="fill:rgb(202,202,202);fill-opacity:0.25;fill-rule:nonzero;"/>
            </g>
        </g>
        <g transform="matrix(1,0,0,1,-197.998,-128.16)">
            <g transform="matrix(1,0,0,1,-354.912,-48.9757)">
                <path d="M633.61,277.09C633.61,277.09 642.36,240 615.32,239.87C615.32,239.87 610.83,238.19 608,242.03C608,242.03 609.93,242.44 608.62,246.1C608.167,247.394 607.865,248.736 607.72,250.1C607.526,251.958 607.944,253.83 608.91,255.43C609.876,257.03 611.44,266.73 627.91,273.81C627.91,273.81 631.15,277.49 632.13,277.53L630.53,270.74C630.53,270.74 625.59,272.11 622.09,269.74C622.09,269.74 630.32,270.95 630.33,269.74C630.33,269.49 629.33,266.18 629.33,266.18C629.33,266.18 620.74,268.52 615.44,264.71C615.44,264.71 625.05,267.47 628.96,264.92L627.16,260C627.16,260 618.16,262.93 612,258.82C612,258.82 622.15,261.36 626.69,258.96L624.24,254.38C624.24,254.38 615.44,257.06 610.31,253.61C610.31,253.61 622.31,255.35 623.61,253.37C623.61,253.37 621.11,249.3 619.92,248.54C619.92,248.54 613.56,250.32 610.76,248.05C610.76,248.05 618.91,248.36 619.1,247.5C619.1,247.5 614.43,243.07 610.87,242.07C614.187,242.825 617.252,244.432 619.76,246.73C619.723,244.634 619.077,242.594 617.9,240.86C616.723,239.126 621.54,242.06 620.9,247.86C620.9,247.86 624.4,251.46 624.51,252.28C624.51,252.28 625.96,246.69 625.03,242.98C625.03,242.98 628.03,246.62 625.2,253.47L627.76,258.02C627.76,258.02 630.08,250.72 629.49,247.36C629.49,247.36 631.98,251.54 628.31,259.22L630.16,264.01C630.16,264.01 632.63,257.87 632.79,254.01C632.79,254.01 634.26,258.39 630.63,265.42L631.49,268.76C631.49,268.76 633.21,264.25 633.59,262.91C633.97,261.57 634.36,261.56 634.36,261.56C634.345,264.602 633.482,267.58 631.87,270.16C630.258,272.74 633.18,277.14 633.61,277.09Z" style="fill:rgb(202,202,202);fill-opacity:0.25;fill-rule:nonzero;"/>
            </g>
        </g>
        <g transform="matrix(1,0,0,1,-197.998,-128.16)">
            <g transform="matrix(1,0,0,1,-309.158,65.113)">
                <path d="M550.39,289.73C550.39,289.73 519.87,266.9 508.96,291.63C508.96,291.63 505.63,295.08 508.02,299.21C508.02,299.21 509.16,297.6 512.02,300.27C513.033,301.212 514.154,302.031 515.36,302.71C516.993,303.619 518.879,303.971 520.73,303.71C522.581,303.449 532.09,305.9 545.17,293.59C545.17,293.59 549.84,292.09 550.28,291.21L543.39,290C543.39,290 542.67,295.07 539.12,297.34C539.12,297.34 543.51,290.28 542.37,289.77C542.14,289.66 538.7,289.27 538.7,289.27C538.7,289.27 537.42,298.09 531.82,301.42C531.82,301.42 538.19,293.71 537.4,289.11L532.17,288.83C532.17,288.83 531.28,298.22 525.04,302.26C525.04,302.26 531.41,293.97 531.04,288.85L525.86,289.27C525.86,289.27 524.81,298.4 519.6,301.72C519.6,301.72 525.99,291.4 524.68,289.44C524.68,289.44 519.95,290.11 518.78,290.89C518.78,290.89 517.87,297.43 514.67,299.09C514.67,299.09 518.22,291.74 517.5,291.23C517.5,291.23 511.57,293.74 509.24,296.6C511.255,293.862 513.951,291.697 517.06,290.32C515.126,289.516 512.999,289.294 510.94,289.68C508.881,290.066 513.48,286.82 518.5,289.73C518.5,289.73 523.2,287.96 524,288.18C524,288.18 519.45,284.61 515.68,283.99C515.68,283.99 520.22,282.69 525.37,287.99L530.56,287.46C530.56,287.46 524.79,282.46 521.48,281.62C521.48,281.62 526.31,281.01 531.88,287.43L537,287.66C537,287.66 532.37,282.94 528.88,281.24C528.88,281.24 533.47,281.64 538.47,287.77L541.88,288.32C541.88,288.32 538.43,284.94 537.35,284.06C536.27,283.18 536.42,282.81 536.42,282.81C539.202,284.042 541.587,286.022 543.31,288.53C545.033,291.038 550.26,290.14 550.39,289.73Z" style="fill:rgb(202,202,202);fill-opacity:0.25;fill-rule:nonzero;"/>
            </g>
        </g>
        <g transform="matrix(1,0,0,1,-197.998,-128.16)">
            <g transform="matrix(1,0,0,1,-333.13,-39.2103)">
                <path d="M1020.6,402.5C1020.6,402.5 982.72,398.28 985.85,425.14C985.85,425.14 984.72,429.8 988.85,432.14C988.85,432.14 989.02,430.14 992.85,431.03C994.202,431.331 995.585,431.469 996.97,431.44C998.841,431.411 1000.65,430.768 1002.12,429.61C1003.59,428.452 1013.03,425.74 1018.07,408.5C1018.07,408.5 1021.33,404.84 1021.26,403.86L1014.71,406.27C1014.71,406.27 1016.71,411.01 1014.71,414.77C1014.71,414.77 1014.92,406.45 1013.71,406.59C1013.46,406.59 1010.3,408.02 1010.3,408.02C1010.3,408.02 1013.66,416.27 1010.52,422.02C1010.52,422.02 1012.1,412.15 1009.09,408.58L1004.44,410.99C1004.44,410.99 1008.44,419.54 1005.1,426.18C1005.1,426.18 1006.39,415.8 1003.46,411.58L999.21,414.58C999.21,414.58 1002.93,422.99 1000.12,428.49C1000.12,428.49 1000.41,416.35 998.28,415.33C998.28,415.33 994.55,418.33 993.93,419.57C993.93,419.57 996.47,425.67 994.55,428.72C994.55,428.72 993.88,420.59 993,420.51C993,420.51 989.16,425.68 988.6,429.33C988.947,425.946 990.174,422.712 992.16,419.95C990.084,420.232 988.136,421.119 986.56,422.5C984.984,423.881 987.3,418.74 993.1,418.7C993.1,418.7 996.26,414.79 997.1,414.59C997.1,414.59 991.37,413.81 987.8,415.18C987.8,415.18 991.05,411.77 998.2,413.76L1002.4,410.67C1002.4,410.67 994.88,409.25 991.61,410.23C991.61,410.23 995.47,407.23 1003.53,409.97L1008.06,407.57C1008.06,407.57 1001.67,405.85 997.8,406.16C997.8,406.16 1001.97,404.16 1009.38,406.93L1012.6,405.67C1012.6,405.67 1007.91,404.5 1006.53,404.29C1005.15,404.08 1005.1,403.69 1005.1,403.69C1008.12,403.337 1011.18,403.832 1013.94,405.12C1016.7,406.408 1020.7,402.93 1020.6,402.5Z" style="fill:rgb(202,202,202);fill-opacity:0.25;fill-rule:nonzero;"/>
            </g>
        </g>
        <g transform="matrix(1,0,0,1,-197.998,-128.16)">
            <g transform="matrix(1,0,0,1,-333.13,-39.2103)">
                <path d="M1078.51,437.88C1078.51,437.88 1040.63,433.67 1043.76,460.52C1043.76,460.52 1042.64,465.18 1046.76,467.52C1046.76,467.52 1046.93,465.52 1050.76,466.42C1052.11,466.714 1053.49,466.848 1054.87,466.82C1056.73,466.782 1058.53,466.143 1060,465C1061.47,463.857 1070.9,461.13 1075.94,443.88C1075.94,443.88 1079.21,440.23 1079.13,439.24L1072.58,441.65C1072.58,441.65 1074.58,446.39 1072.58,450.15C1072.58,450.15 1072.79,441.84 1071.58,441.97C1071.33,441.97 1068.17,443.4 1068.17,443.4C1068.17,443.4 1071.53,451.65 1068.39,457.4C1068.39,457.4 1069.97,447.53 1066.96,443.97L1062.31,446.37C1062.31,446.37 1066.31,454.92 1062.97,461.56C1062.97,461.56 1064.26,451.18 1061.33,446.97L1057.08,449.97C1057.08,449.97 1060.8,458.38 1058,463.89C1058,463.89 1058.28,451.74 1056.15,450.72C1056.15,450.72 1052.42,453.72 1051.8,454.96C1051.8,454.96 1054.34,461.06 1052.42,464.11C1052.42,464.11 1051.75,455.98 1050.87,455.9C1050.87,455.9 1047.03,461.07 1046.48,464.72C1046.83,461.338 1048.05,458.104 1050.03,455.34C1047.95,455.627 1046.01,456.513 1044.43,457.89C1042.85,459.267 1045.18,454.13 1050.98,454.1C1050.98,454.1 1054.13,450.19 1054.98,449.98C1054.98,449.98 1049.25,449.21 1045.68,450.58C1045.68,450.58 1048.93,447.16 1056.08,449.15L1060.28,446.06C1060.28,446.06 1052.76,444.64 1049.49,445.62C1049.49,445.62 1053.35,442.62 1061.41,445.37L1065.94,442.96C1065.94,442.96 1059.55,441.24 1055.68,441.55C1055.68,441.55 1059.85,439.55 1067.26,442.32L1070.48,441.07C1070.48,441.07 1065.79,439.9 1064.42,439.68C1063.05,439.46 1062.98,439.08 1062.98,439.08C1066,438.733 1069.06,439.232 1071.82,440.52C1074.58,441.808 1078.61,438.31 1078.51,437.88Z" style="fill:rgb(202,202,202);fill-opacity:0.25;fill-rule:nonzero;"/>
            </g>
        </g>
        <g transform="matrix(1,0,0,1,-197.998,-128.16)">
            <g transform="matrix(1,0,0,1,-333.13,-39.2103)">
                <path d="M973.52,304.69C973.52,304.69 963,268.06 939.34,281.21C939.34,281.21 934.6,281.94 934.01,286.68C934.01,286.68 935.89,286.09 936.54,289.92C936.781,291.296 937.184,292.639 937.74,293.92C938.482,295.643 939.767,297.076 941.4,298C943.033,298.924 949.14,306.6 967,304.68C967,304.68 971.62,306.3 972.5,305.86L967.77,300.72C967.77,300.72 964.14,304.34 959.94,304C959.94,304 967.7,301 967.1,299.93C966.98,299.71 964.48,297.32 964.48,297.32C964.48,297.32 958.14,303.58 951.66,302.85C951.66,302.85 961.39,300.55 963.53,296.41L959.53,293.03C959.53,293.03 953.15,299.97 945.74,299.43C945.74,299.43 955.82,296.66 958.6,292.35L954.22,289.56C954.22,289.56 947.87,296.21 941.71,295.71C941.71,295.71 953.04,291.34 953.18,288.99C953.18,288.99 949,286.67 947.59,286.59C947.59,286.59 942.92,291.25 939.37,290.65C939.37,290.65 946.63,286.92 946.37,286.08C946.37,286.08 940.13,284.51 936.54,285.38C939.791,284.416 943.238,284.316 946.54,285.09C945.482,283.281 943.918,281.82 942.04,280.89C940.162,279.96 945.8,280.14 948.04,285.49C948.04,285.49 952.85,286.91 953.35,287.57C953.35,287.57 951.88,281.98 949.25,279.21C949.25,279.21 953.65,280.91 954.54,288.27L959,290.98C959,290.98 957.44,283.48 955.28,280.84C955.28,280.84 959.5,283.27 960.07,291.75L964.07,295.02C964.07,295.02 963.22,288.46 961.46,285.02C961.46,285.02 964.89,288.12 965.17,296.02L967.55,298.52C967.55,298.52 966.85,293.74 966.55,292.38C966.25,291.02 966.55,290.83 966.55,290.83C968.03,293.49 968.74,296.51 968.6,299.55C968.46,302.59 973.16,304.93 973.52,304.69Z" style="fill:rgb(202,202,202);fill-opacity:0.25;fill-rule:nonzero;"/>
            </g>
        </g>
        <g transform="matrix(1,0,0,1,-197.998,-128.16)">
            <g transform="matrix(1,0,0,1,-333.13,-39.2103)">
                <path d="M739.1,387.23C739.1,387.23 718.67,355.05 699.7,374.31C699.7,374.31 695.36,376.31 696.12,381.06C696.12,381.06 697.77,379.96 699.47,383.46C700.081,384.7 700.84,385.862 701.73,386.92C702.922,388.364 704.557,389.376 706.38,389.8C708.203,390.224 716.23,395.88 732.83,389C732.83,389 737.72,389.26 738.44,388.59L732.44,384.99C732.44,384.99 729.97,389.49 725.84,390.34C725.84,390.34 732.46,385.34 731.57,384.42C731.4,384.24 728.32,382.66 728.32,382.66C728.32,382.66 723.99,390.44 717.57,391.57C717.57,391.57 726.26,386.62 727.16,382.04L722.37,379.93C722.37,379.93 718.2,388.38 710.94,389.93C710.94,389.93 719.84,384.44 721.29,379.52L716.29,378.08C716.29,378.08 712.07,386.25 706.02,387.5C706.02,387.5 715.66,380.12 715.13,377.82C715.13,377.82 710.47,376.77 709.13,377.09C709.13,377.09 705.96,382.88 702.38,383.3C702.38,383.3 708.3,377.68 707.81,376.94C707.81,376.94 701.38,377.19 698.18,379.04C701.034,377.191 704.324,376.122 707.72,375.94C706.2,374.501 704.291,373.538 702.23,373.17C700.169,372.802 705.62,371.4 709.23,375.9C709.23,375.9 714.23,375.9 714.92,376.4C714.92,376.4 711.92,371.4 708.63,369.53C708.63,369.53 713.33,369.93 716.25,376.74L721.3,378.08C721.3,378.08 717.69,371.33 714.88,369.4C714.88,369.4 719.61,370.54 722.54,378.53L727.26,380.53C727.26,380.53 724.6,374.48 721.93,371.65C721.93,371.65 726.09,373.65 728.58,381.16L731.58,382.89C731.58,382.89 729.58,378.5 728.87,377.29C728.16,376.08 728.44,375.8 728.44,375.8C730.604,377.937 732.131,380.635 732.85,383.59C733.569,386.545 738.83,387.57 739.1,387.23Z" style="fill:rgb(202,202,202);fill-opacity:0.25;fill-rule:nonzero;"/>
            </g>
        </g>
        <g transform="matrix(1,0,0,1,-197.998,-128.16)">
            <g transform="matrix(0.533623,-0.845723,0.845723,0.533623,-408.215,798.732)">
                <path d="M739.1,387.23C739.1,387.23 718.67,355.05 699.7,374.31C699.7,374.31 695.36,376.31 696.12,381.06C696.12,381.06 697.77,379.96 699.47,383.46C700.081,384.7 700.84,385.862 701.73,386.92C702.922,388.364 704.557,389.376 706.38,389.8C708.203,390.224 716.23,395.88 732.83,389C732.83,389 737.72,389.26 738.44,388.59L732.44,384.99C732.44,384.99 729.97,389.49 725.84,390.34C725.84,390.34 732.46,385.34 731.57,384.42C731.4,384.24 728.32,382.66 728.32,382.66C728.32,382.66 723.99,390.44 717.57,391.57C717.57,391.57 726.26,386.62 727.16,382.04L722.37,379.93C722.37,379.93 718.2,388.38 710.94,389.93C710.94,389.93 719.84,384.44 721.29,379.52L716.29,378.08C716.29,378.08 712.07,386.25 706.02,387.5C706.02,387.5 715.66,380.12 715.13,377.82C715.13,377.82 710.47,376.77 709.13,377.09C709.13,377.09 705.96,382.88 702.38,383.3C702.38,383.3 708.3,377.68 707.81,376.94C707.81,376.94 701.38,377.19 698.18,379.04C701.034,377.191 704.324,376.122 707.72,375.94C706.2,374.501 704.291,373.538 702.23,373.17C700.169,372.802 705.62,371.4 709.23,375.9C709.23,375.9 714.23,375.9 714.92,376.4C714.92,376.4 711.92,371.4 708.63,369.53C708.63,369.53 713.33,369.93 716.25,376.74L721.3,378.08C721.3,378.08 717.69,371.33 714.88,369.4C714.88,369.4 719.61,370.54 722.54,378.53L727.26,380.53C727.26,380.53 724.6,374.48 721.93,371.65C721.93,371.65 726.09,373.65 728.58,381.16L731.58,382.89C731.58,382.89 729.58,378.5 728.87,377.29C728.16,376.08 728.44,375.8 728.44,375.8C730.604,377.937 732.131,380.635 732.85,383.59C733.569,386.545 738.83,387.57 739.1,387.23Z" style="fill:rgb(202,202,202);fill-opacity:0.25;fill-rule:nonzero;"/>
            </g>
        </g>
        <g transform="matrix(1,0,0,1,-197.998,-128.16)">
            <g transform="matrix(1,0,0,1,-333.13,-39.2103)">
                <path d="M873.37,222.81C873.37,222.81 853.94,190.02 834.37,208.68C834.37,208.68 829.97,210.58 830.59,215.32C830.59,215.32 832.26,214.26 833.86,217.81C834.432,219.072 835.154,220.26 836.01,221.35C837.158,222.824 838.762,223.879 840.57,224.35C842.378,224.821 850.22,230.73 867.03,224.35C867.03,224.35 871.91,224.76 872.65,224.11L866.78,220.33C866.78,220.33 864.18,224.74 860.02,225.47C860.02,225.47 866.79,220.64 865.94,219.73C865.76,219.54 862.74,217.86 862.74,217.86C862.74,217.86 858.17,225.51 851.74,226.44C851.74,226.44 860.58,221.76 861.61,217.22L856.89,215C856.89,215 852.46,223.33 845.15,224.66C845.15,224.66 854.22,219.45 855.82,214.58L850.88,212.98C850.88,212.98 846.4,220.98 840.32,222.08C840.32,222.08 850.18,215 849.72,212.69C849.72,212.69 845.1,211.49 843.72,211.77C843.72,211.77 840.37,217.46 836.78,217.77C836.78,217.77 842.87,212.35 842.41,211.59C842.41,211.59 835.97,211.64 832.72,213.39C835.631,211.634 838.951,210.669 842.35,210.59C840.872,209.104 838.991,208.081 836.94,207.65C834.889,207.219 840.39,205.98 843.94,210.59C843.94,210.59 848.94,210.76 849.61,211.27C849.61,211.27 846.78,206.27 843.54,204.21C843.54,204.21 848.22,204.75 850.93,211.65L855.93,213.15C855.93,213.15 852.54,206.29 849.78,204.27C849.78,204.27 854.48,205.56 857.16,213.63L861.81,215.8C861.81,215.8 859.34,209.67 856.81,206.8C856.81,206.8 860.9,208.93 863.17,216.51L866.1,218.33C866.1,218.33 864.22,213.88 863.56,212.65C862.9,211.42 863.18,211.15 863.18,211.15C865.276,213.353 866.72,216.095 867.35,219.07C867.98,222.045 873.08,223.14 873.37,222.81Z" style="fill:rgb(202,202,202);fill-rule:nonzero;"/>
            </g>
        </g>
        <g transform="matrix(1,0,0,1,-197.998,-128.16)">
            <g transform="matrix(1,0,0,1,-298.74,148.33)">
                <path d="M873.37,222.81C873.37,222.81 853.94,190.02 834.37,208.68C834.37,208.68 829.97,210.58 830.59,215.32C830.59,215.32 832.26,214.26 833.86,217.81C834.432,219.072 835.154,220.26 836.01,221.35C837.158,222.824 838.762,223.879 840.57,224.35C842.378,224.821 850.22,230.73 867.03,224.35C867.03,224.35 871.91,224.76 872.65,224.11L866.78,220.33C866.78,220.33 864.18,224.74 860.02,225.47C860.02,225.47 866.79,220.64 865.94,219.73C865.76,219.54 862.74,217.86 862.74,217.86C862.74,217.86 858.17,225.51 851.74,226.44C851.74,226.44 860.58,221.76 861.61,217.22L856.89,215C856.89,215 852.46,223.33 845.15,224.66C845.15,224.66 854.22,219.45 855.82,214.58L850.88,212.98C850.88,212.98 846.4,220.98 840.32,222.08C840.32,222.08 850.18,215 849.72,212.69C849.72,212.69 845.1,211.49 843.72,211.77C843.72,211.77 840.37,217.46 836.78,217.77C836.78,217.77 842.87,212.35 842.41,211.59C842.41,211.59 835.97,211.64 832.72,213.39C835.631,211.634 838.951,210.669 842.35,210.59C840.872,209.104 838.991,208.081 836.94,207.65C834.889,207.219 840.39,205.98 843.94,210.59C843.94,210.59 848.94,210.76 849.61,211.27C849.61,211.27 846.78,206.27 843.54,204.21C843.54,204.21 848.22,204.75 850.93,211.65L855.93,213.15C855.93,213.15 852.54,206.29 849.78,204.27C849.78,204.27 854.48,205.56 857.16,213.63L861.81,215.8C861.81,215.8 859.34,209.67 856.81,206.8C856.81,206.8 860.9,208.93 863.17,216.51L866.1,218.33C866.1,218.33 864.22,213.88 863.56,212.65C862.9,211.42 863.18,211.15 863.18,211.15C865.276,213.353 866.72,216.095 867.35,219.07C867.98,222.045 873.08,223.14 873.37,222.81Z" style="fill:rgb(202,202,202);fill-rule:nonzero;"/>
            </g>
        </g>
        <g transform="matrix(1,0,0,1,-197.998,-128.16)">
            <g transform="matrix(1,0,0,1,-333.13,-39.2103)">
                <path d="M750.44,291.76C750.44,291.76 751.44,253.66 724.97,259.03C724.97,259.03 720.23,258.3 718.23,262.64C718.23,262.64 720.23,262.64 719.67,266.49C719.487,267.863 719.467,269.252 719.61,270.63C719.791,272.498 720.582,274.256 721.86,275.63C723.138,277.004 726.63,286.17 744.24,289.75C744.24,289.75 748.15,292.7 749.13,292.54L746.13,286.22C746.13,286.22 741.58,288.56 737.67,286.97C737.67,286.97 745.97,286.48 745.74,285.26C745.74,285.01 744.02,281.97 744.02,281.97C744.02,281.97 736.08,286.02 730.13,283.36C730.13,283.36 740.13,284.11 743.4,280.82L740.61,276.39C740.61,276.39 732.43,281.07 725.53,278.31C725.53,278.31 735.98,278.73 739.94,275.46L736.61,271.46C736.61,271.46 728.54,275.88 722.82,273.54C722.82,273.54 734.94,272.81 735.82,270.6C735.82,270.6 732.54,267.13 731.22,266.6C731.22,266.6 725.36,269.6 722.16,267.98C722.16,267.98 730.16,266.64 730.21,265.75C730.21,265.75 724.74,262.36 721.05,262.11C724.452,262.171 727.78,263.123 730.7,264.87C730.244,262.826 729.202,260.959 727.7,259.5C726.198,258.041 731.51,259.93 732.03,265.7C732.03,265.7 736.2,268.52 736.47,269.3C736.47,269.3 736.76,263.53 735.09,260.09C735.09,260.09 738.77,263.04 737.39,270.32L740.82,274.26C740.82,274.26 741.6,266.64 740.35,263.47C740.35,263.47 743.63,267.06 741.61,275.32L744.38,279.63C744.38,279.63 745.56,273.12 744.93,269.29C744.93,269.29 747.25,273.29 745.13,280.9L746.65,284C746.65,284 747.42,279.23 747.52,277.84C747.62,276.45 748,276.36 748,276.36C748.602,279.343 748.363,282.435 747.31,285.29C746.257,288.145 750,291.89 750.44,291.76Z" style="fill:rgb(202,202,202);fill-rule:nonzero;"/>
            </g>
        </g>
        <g transform="matrix(1,0,0,1,-197.998,-128.16)">
            <g transform="matrix(-0.0481814,-0.998839,0.998839,-0.0481814,58.026,1033.5)">
                <path d="M750.44,291.76C750.44,291.76 751.44,253.66 724.97,259.03C724.97,259.03 720.23,258.3 718.23,262.64C718.23,262.64 720.23,262.64 719.67,266.49C719.487,267.863 719.467,269.252 719.61,270.63C719.791,272.498 720.582,274.256 721.86,275.63C723.138,277.004 726.63,286.17 744.24,289.75C744.24,289.75 748.15,292.7 749.13,292.54L746.13,286.22C746.13,286.22 741.58,288.56 737.67,286.97C737.67,286.97 745.97,286.48 745.74,285.26C745.74,285.01 744.02,281.97 744.02,281.97C744.02,281.97 736.08,286.02 730.13,283.36C730.13,283.36 740.13,284.11 743.4,280.82L740.61,276.39C740.61,276.39 732.43,281.07 725.53,278.31C725.53,278.31 735.98,278.73 739.94,275.46L736.61,271.46C736.61,271.46 728.54,275.88 722.82,273.54C722.82,273.54 734.94,272.81 735.82,270.6C735.82,270.6 732.54,267.13 731.22,266.6C731.22,266.6 725.36,269.6 722.16,267.98C722.16,267.98 730.16,266.64 730.21,265.75C730.21,265.75 724.74,262.36 721.05,262.11C724.452,262.171 727.78,263.123 730.7,264.87C730.244,262.826 729.202,260.959 727.7,259.5C726.198,258.041 731.51,259.93 732.03,265.7C732.03,265.7 736.2,268.52 736.47,269.3C736.47,269.3 736.76,263.53 735.09,260.09C735.09,260.09 738.77,263.04 737.39,270.32L740.82,274.26C740.82,274.26 741.6,266.64 740.35,263.47C740.35,263.47 743.63,267.06 741.61,275.32L744.38,279.63C744.38,279.63 745.56,273.12 744.93,269.29C744.93,269.29 747.25,273.29 745.13,280.9L746.65,284C746.65,284 747.42,279.23 747.52,277.84C747.62,276.45 748,276.36 748,276.36C748.602,279.343 748.363,282.435 747.31,285.29C746.257,288.145 750,291.89 750.44,291.76Z" style="fill:rgb(202,202,202);fill-rule:nonzero;"/>
            </g>
        </g>
        <g transform="matrix(1,0,0,1,-197.998,-128.16)">
            <g transform="matrix(0.465486,0,0,0.465486,472.498,522.883)">
                <g transform="matrix(1,0,0,1,-321.5,-245.5)">
                    <g transform="matrix(1,0,0,1,-27.29,-261.71)">
                        <path d="M559.73,403.7L347.86,352.67L347.86,752L559.73,696.54L559.73,403.7Z" style="fill:rgb(224,224,224);fill-rule:nonzero;"/>
                        <path d="M559.73,403.7L347.86,352.67L347.86,752L559.73,696.54L559.73,403.7Z" style="fill-opacity:0.1;fill-rule:nonzero;"/>
                        <path d="M135.99,403.7L347.86,352.67L347.86,752L135.99,697.65L135.99,403.7Z" style="fill:rgb(224,224,224);fill-rule:nonzero;"/>
                        <path d="M135.99,401.93L347.86,350.91L347.86,752L135.99,697.65L135.99,401.93Z" style="fill-opacity:0.17;fill-rule:nonzero;"/>
                        <path d="M346.09,354.44L457.68,261.71L669.54,316.07L557.96,405.46L346.09,354.44Z" style="fill:rgb(224,224,224);fill-rule:nonzero;"/>
                        <path d="M29.05,318.94L137.76,405.46L349.62,354.44L242.03,263.48L29.05,318.94Z" style="fill:rgb(224,224,224);fill-rule:nonzero;"/>
                        <path d="M27.29,317.18L138.64,405.46L350.51,354.44L240.26,261.71L27.29,317.18Z" style="fill-opacity:0.05;fill-rule:nonzero;"/>
                        <path d="M135.99,403.7L135.99,697.65L347.86,752L350.72,460.27L135.99,403.7Z" style="fill:rgb(224,224,224);fill-rule:nonzero;"/>
                        <path d="M559.73,696.54L347.86,752L347.86,460.27L559.73,403.7L559.73,696.54Z" style="fill:rgb(224,224,224);fill-rule:nonzero;"/>
                        <path d="M559.73,696.54L347.86,752L347.86,460.27L559.73,403.7L559.73,696.54Z" style="fill-opacity:0.07;fill-rule:nonzero;"/>
                        <path d="M475.42,598.92L475.42,695.43L559.73,672.13L559.73,575.63L475.42,598.92Z" style="fill-opacity:0.07;fill-rule:nonzero;"/>
                        <path d="M133.22,556.22L251.91,586.17L347.31,508.52L347.31,460.82L135.44,407.58L133.22,556.22Z" style="fill-opacity:0.1;fill-rule:nonzero;"/>
                        <path d="M561.39,556.22L442.7,586.17L347.31,508.52L347.31,460.82L559.17,407.58L561.39,556.22Z" style="fill-opacity:0.1;fill-rule:nonzero;"/>
                        <path d="M135.99,403.7L27.29,493.55L239.15,546.79L347.86,460.27L135.99,403.7Z" style="fill:rgb(224,224,224);fill-rule:nonzero;"/>
                        <path d="M559.73,403.7L669.54,493.55L458.78,546.79L347.86,460.27L559.73,403.7Z" style="fill:rgb(224,224,224);fill-rule:nonzero;"/>
                        <path d="M559.73,403.7L669.54,493.55L458.78,546.79L347.86,460.27L559.73,403.7Z" style="fill-opacity:0.07;fill-rule:nonzero;"/>
                    </g>
                </g>
            </g>
        </g>
    </g>
</svg>
